<?xml version="1.0" encoding="utf-8"?>
<!-- Generator: Adobe Illustrator 22.0.1, SVG Export Plug-In . SVG Version: 6.00 Build 0)  -->
<svg version="1.1" id="Layer_1" xmlns="http://www.w3.org/2000/svg" xmlns:xlink="http://www.w3.org/1999/xlink" x="0px" y="0px"
	 viewBox="0 0 1746 500" style="enable-background:new 0 0 1746 500;" xml:space="preserve">
<style type="text/css">
	.st0{stroke:#000000;stroke-width:4;stroke-miterlimit:10;}
	.st1{fill:none;stroke:#000000;stroke-width:18;stroke-linecap:round;stroke-linejoin:round;stroke-miterlimit:10;}
	.st2{fill:none;stroke:#FFFFFF;stroke-width:21;stroke-linecap:round;stroke-linejoin:round;stroke-miterlimit:10;}
	.st3{fill:none;stroke:#000000;stroke-width:21;stroke-linecap:round;stroke-linejoin:round;stroke-miterlimit:10;}
</style>
<g>
	<g>
		<path d="M312.5,168.9C312,99.9,255.6,44,186.6,44c-69.6,0-126,56.4-126,125.5c0,5.8,4.7,10.5,10.5,10.5h51.7l9.5,26.9
			c2.1,5.3,7.9,8.4,13.2,6.3s8.4-7.9,6.3-13.2l-11.1-33.7c-1.6-4.2-5.3-6.9-10-6.9h-48c5.3-52.7,50.1-93.8,104.4-93.8
			c58,0,104.9,46.9,104.9,104.4c0,0.5,0,1.1,0,1.1l10.5,90.1h-32.2c-5.8,0-10.5,4.7-10.5,10.5v62.7c0,11.1-9,20-20,20H205
			c-5.8,0-10.5,4.7-10.5,10.5v85.4c0,5.8,4.7,10.5,10.5,10.5s10.5-4.7,10.5-10.5v-74.9h24.3c22.7,0,41.1-18.5,41.1-41.1v-52.2h33.2
			c3.2,0,5.8-1.1,7.9-3.7c2.1-2.1,3.2-5.3,2.6-8.4L312.5,168.9z"/>
		<ellipse cx="250.3" cy="183.3" rx="18.5" ry="17.9"/>
		<path class="st0" d="M303,304.2c-3,2.8-3.2,7.5-0.4,10.5c8.8,9.5,8.2,24.4-1.3,33.2c-3,2.8-3.2,7.5-0.5,10.5
			c2.8,3,7.5,3.2,10.5,0.5c15.6-14.3,16.7-38.6,2.4-54.2c0,0,0,0-0.1-0.1c-2.8-3-7.5-3.3-10.5-0.5
			C303.1,304.1,303.1,304.1,303,304.2z"/>
		<path class="st0" d="M329.8,367.4c-3,2.8-3.2,7.5-0.5,10.5c2.8,3,7.5,3.2,10.5,0.5c26.3-24.3,28-65.2,3.7-91.6l-0.1-0.1
			c-2.8-3-7.5-3.2-10.5-0.5c-3,2.8-3.2,7.5-0.5,10.5C351.2,317,350,348.6,329.8,367.4C329.7,367.3,329.7,367.3,329.8,367.4
			L329.8,367.4z"/>
		<path d="M360.8,382.6c-4.1,3.7-4.4,10-0.6,14.1c3.7,4.1,10,4.4,14.1,0.6c35.3-32.6,37.6-87.6,5-122.9l-0.1-0.1
			c-3.7-4.1-10-4.4-14.1-0.6c-4.1,3.7-4.4,10-0.6,14.1C389.7,315,388,357.4,360.8,382.6L360.8,382.6L360.8,382.6z"/>
		<polyline class="st1" points="17.8,49 17.8,19 47.8,19 		"/>
		<polyline class="st1" points="47.8,482 17.8,482 17.8,452 		"/>
		<polyline class="st1" points="482.8,452 482.8,482 452.8,482 		"/>
		<polyline class="st1" points="452.8,19 482.8,19 482.8,49 		"/>
		<line class="st2" x1="17.8" y1="249.5" x2="482.8" y2="251.5"/>
		<line class="st3" x1="17.8" y1="240" x2="482.8" y2="242"/>
	</g>
	<g>
		<path d="M548.4,222v-10.6l15.2-3.6v-94.8l-12.5-2.5V98.9h46.4l27.4,89.1l0.6,5.9l1-5.9l27.9-89.1h46v11.8l-12.9,2.3v94.8l15.2,3.6
			V222h-57.2v-10.6l15.2-3.6v-67.8l0.4-4.6H660l-1,4.6L633.4,222h-23l-27.2-86.6h-1.1l0.4,4.6v67.8l15.2,3.6V222H548.4z"/>
		<path d="M715.8,211.3l15.2-3.6v-94.6l-15.2-3.6V98.9h94.4v35.7h-12.9l-4.8-21.3h-26.2l-8.4,1.3v37.8h19.4l4.2-13.1h10.1v42h-10.1
			l-4.2-14.4H758v40.7h9.1h27.4l4.9-23H812V222h-96.1V211.3z"/>
		<path d="M826.2,211.3l15.2-3.6v-94.6l-15.2-3.6V98.9h59.5c20.1,0,35.6,5,46.4,15.1c10.8,10.1,16.1,25.1,16.1,44.9
			c0,12.5-2.6,23.6-7.8,33.2c-5.2,9.6-12.4,16.9-21.7,22.1c-9.2,5.2-19.9,7.8-31.9,7.8h-60.6V211.3z M901.2,203.3
			c6-2.9,10.2-7.8,12.5-14.9c2.3-7.1,3.5-17.6,3.5-31.5c0-12-1.7-21.2-5.1-27.6c-3.4-6.4-7.9-10.6-13.5-12.7
			c-5.6-2.1-12.3-3.1-20.3-3.1h-9.9v94.2h6.1C886.2,207.5,895.1,206.1,901.2,203.3z"/>
		<path d="M961.5,211.3l15.2-3.6v-94.6l-15.2-3.6V98.9h57.4v10.6l-15.2,3.6v94.6l15.2,3.6V222h-57.4V211.3z"/>
		<path d="M1038.8,185.3l4.9,23c0.3,0.1,1,0.4,2.2,0.8c1.2,0.4,2.7,0.6,4.5,0.6c4.3,0,7.2-0.8,8.6-2.5c1.4-1.6,2.1-4.3,2.1-8v-86.1
			l-15.2-3.6V98.9h57.4v10.6l-15.2,3.6v86.1c0,8-2.4,14.3-7.3,19.1c-4.9,4.8-14,7.1-27.5,7.1c-6,0-11.4-0.6-16.3-1.9
			c-4.9-1.3-8.7-2.7-11.4-4.4v-33.8H1038.8z"/>
		<path d="M1127.6,222.1c-7-2.1-12.3-4.2-15.9-6.4v-33.8h13.3l4,19.6c2.4,2.4,5.8,4.4,10.1,5.9c4.3,1.5,8.5,2.3,12.5,2.3
			c8.1,0,13.9-1.5,17.5-4.6c3.5-3,5.3-7,5.3-12c0-3.2-0.5-5.7-1.5-7.5c-1-1.8-3.1-3.7-6.4-5.6c-3.2-1.9-8.6-4.5-16.1-7.8l-5.5-2.3
			c-7.2-3-13-5.9-17.5-8.5c-4.4-2.7-8.2-6.4-11.2-11.2c-3-4.8-4.6-11-4.6-18.4c0-7.1,1.8-13.4,5.4-18.9c3.6-5.5,8.8-9.8,15.6-12.8
			c6.8-3,14.7-4.6,23.7-4.6c6.5,0,13.1,0.5,20,1.5c6.9,1,12.4,2.1,16.4,3.2v34.6h-13.1l-4-19.8c-5.8-2.4-12-3.6-18.6-3.6
			c-7.6,0-12.9,1.2-16,3.7s-4.6,6.4-4.6,11.7c0,2.9,0.8,5.4,2.3,7.3c1.5,2,3.5,3.5,5.9,4.8c2.4,1.2,6,2.8,10.6,4.7
			c0.9,0.3,2.2,0.8,4,1.5c8.6,3.4,15.6,6.7,21,10c5.4,3.2,9.7,7.3,13,12.2c3.3,4.9,4.9,10.8,4.9,17.8c0,14.3-4.5,24.6-13.4,30.9
			c-8.9,6.3-19.9,9.4-32.8,9.4C1142.9,225.2,1134.7,224.2,1127.6,222.1z"/>
		<path d="M1228.1,207.7v-94.6l-15.2-3.6V98.9h57.4v10.6l-15.2,3.6v41.2h2.8l31.9-39.3v-3.2l-9.1-2.3V98.9h44.3v10.6l-13.1,3.6
			l-33.4,41.2l36.7,53.2l15.4,3.8V222H1302c-3,0-5.4-0.7-7.2-2c-1.8-1.3-3.7-3.5-5.7-6.6l-31.5-46.7h-2.5v41l15.2,3.6V222h-57.4
			v-10.6L1228.1,207.7z"/>
		<path d="M1333.3,211.3l15.2-3.6v-94.6l-15.2-3.6V98.9h57.4v10.6l-15.2,3.6v94.6l15.2,3.6V222h-57.4V211.3z"/>
		<path d="M549,381.3l15.2-3.6v-94.6l-15.2-3.6v-10.6h52.4c17,0,29.5,2.6,37.6,7.7c8.1,5.1,12.2,13.1,12.2,24c0,4.8-1.6,9.5-4.8,14
			c-3.2,4.5-7.7,8.5-13.5,12.1c15.2,4.9,22.8,13.8,22.8,26.6c0,12-4,21.5-12.1,28.4c-8,6.9-19,10.4-33,10.4H549V381.3z M597.8,322.3
			c7.9,0,14-1.8,18.3-5.3c4.4-3.5,6.6-8.4,6.6-14.6c0-6.2-1.8-10.9-5.3-14.2c-3.5-3.2-8.8-4.8-15.8-4.8c-3.4,0-6.9,0.3-10.5,0.8
			v38.2H597.8z M620.1,372.5c4.6-3.4,6.8-8.6,6.8-15.9c0-13.3-9.6-20-28.9-20h-6.8v40.7c0.9,0.1,3.2,0.2,7,0.2
			C608.2,377.5,615.5,375.9,620.1,372.5z"/>
		<path d="M670,381.3l15.2-3.6v-94.6l-15.2-3.6v-10.6h94.4v35.7h-12.9l-4.8-21.3h-26.2l-8.4,1.3v37.8h19.4l4.2-13.1h10.1v42h-10.1
			l-4.2-14.4h-19.4v40.7h9.1h27.4l4.9-23h12.5V392H670V381.3z"/>
		<path d="M797,392.1c-7-2.1-12.3-4.2-15.9-6.4v-33.8h13.3l4,19.6c2.4,2.4,5.8,4.4,10.1,5.9c4.3,1.5,8.5,2.3,12.5,2.3
			c8.1,0,13.9-1.5,17.5-4.6c3.5-3,5.3-7,5.3-12c0-3.2-0.5-5.7-1.5-7.5c-1-1.8-3.1-3.7-6.4-5.6c-3.2-1.9-8.6-4.5-16.1-7.8l-5.5-2.3
			c-7.2-3-13-5.9-17.5-8.6c-4.4-2.7-8.2-6.4-11.2-11.2c-3-4.8-4.6-11-4.6-18.4c0-7.1,1.8-13.4,5.4-18.9c3.6-5.5,8.8-9.8,15.6-12.8
			c6.8-3,14.7-4.6,23.7-4.6c6.5,0,13.1,0.5,20,1.5c6.9,1,12.4,2.1,16.4,3.2v34.6h-13.1l-4-19.8c-5.8-2.4-12-3.6-18.6-3.6
			c-7.6,0-12.9,1.2-16,3.7s-4.6,6.4-4.6,11.7c0,2.9,0.8,5.4,2.3,7.3c1.5,2,3.5,3.5,5.9,4.8c2.4,1.2,6,2.8,10.6,4.7
			c0.9,0.3,2.2,0.8,4,1.5c8.6,3.4,15.6,6.7,21,10c5.4,3.2,9.7,7.3,13,12.2c3.3,4.9,4.9,10.8,4.9,17.8c0,14.3-4.5,24.6-13.4,30.9
			c-8.9,6.3-19.9,9.4-32.8,9.4C812.3,395.2,804.1,394.2,797,392.1z"/>
		<path d="M882.3,381.3l15.2-3.6v-94.6l-15.2-3.6v-10.6h94.4v35.7h-12.9l-4.8-21.3h-26.2l-8.4,1.3v37.8h19.4l4.2-13.1h10.1v42H948
			l-4.2-14.4h-19.4v40.7h9.1h27.4l4.9-23h12.5V392h-96.1V381.3z"/>
		<path d="M992.6,381.3l15.2-3.6v-94.6l-15.2-3.6v-10.6h59.5c20.1,0,35.6,5,46.4,15.1c10.8,10.1,16.1,25,16.1,44.9
			c0,12.5-2.6,23.6-7.8,33.2c-5.2,9.6-12.4,16.9-21.7,22.1c-9.2,5.2-19.9,7.8-31.9,7.8h-60.6V381.3z M1067.6,373.3
			c6-2.9,10.2-7.8,12.5-14.9c2.3-7.1,3.5-17.6,3.5-31.5c0-12-1.7-21.2-5.1-27.6c-3.4-6.4-7.9-10.6-13.5-12.7
			c-5.6-2.1-12.3-3.1-20.3-3.1h-9.9v94.2h6.1C1052.7,377.5,1061.6,376.1,1067.6,373.3z"/>
		<path d="M1142.9,379.4c-10-10.7-15-26.3-15-46.8c0-13,2.5-24.7,7.6-34.9c5.1-10.2,12.3-18.1,21.8-23.8c9.5-5.6,20.6-8.5,33.4-8.5
			c18.7,0,33.1,5.4,43.1,16.1c10,10.7,15,26.3,15,46.8c0,13.2-2.5,24.8-7.5,35c-5,10.1-12.2,18-21.7,23.7
			c-9.4,5.6-20.7,8.5-33.7,8.5C1167.3,395.4,1152.9,390.1,1142.9,379.4z M1205.8,375.4c4.1-2.8,7.1-7.7,9-14.4
			c2-6.8,2.9-16,2.9-27.6c0-12.7-1.1-22.8-3.2-30.4c-2.2-7.6-5.4-13.1-9.9-16.4c-4.4-3.4-10.2-5-17.3-5c-6.7,0-12.1,1.4-16.2,4.3
			c-4.1,2.9-7.2,7.6-9.2,14.3c-2,6.7-3,15.8-3,27.5c0,12.8,1.1,23,3.3,30.6c2.2,7.6,5.5,13.1,10,16.5c4.4,3.4,10.3,5.1,17.5,5.1
			C1196.4,379.6,1201.8,378.2,1205.8,375.4z"/>
		<path d="M1324.2,339.2v-10.6h51.7v10.6l-9.5,3.6V392h-9.5l-4.4-4.9h-1.7c-9,5.6-19.5,8.4-31.5,8.4c-19,0-33.3-5.3-42.8-15.8
			c-9.5-10.5-14.3-25.9-14.3-46.2c0-14.2,2.8-26.4,8.3-36.7s13.3-18,23.3-23.4c10-5.3,21.6-8,34.8-8c6.6,0,12.4,0.4,17.5,1.3
			c5.1,0.9,9.3,1.8,12.6,2.8c3.4,1,5.5,1.6,6.6,1.8v34.2H1351l-4-20.5c-5.1-2.4-11.1-3.6-18.2-3.6c-12.4,0-21.4,4-27.1,11.9
			c-5.6,7.9-8.5,20.4-8.5,37.5c0,12.4,1.1,22.2,3.4,29.3c2.3,7.1,5.6,12.1,10.1,15.1c4.4,3,10.3,4.5,17.5,4.5
			c5.7,0,10.8-0.8,15.2-2.5v-34.4L1324.2,339.2z"/>
		<path d="M1385.4,381.3l15.2-3.6v-94.6l-15.2-3.6v-10.6h57.4v10.6l-15.2,3.6v93.1l9.7,1.3h22.2l5.1-21.3h12.5V392h-91.8V381.3z"/>
		<path d="M1484.7,381.3l15.2-3.6v-94.6l-15.2-3.6v-10.6h94.4v35.7h-12.9l-4.8-21.3h-26.2l-8.4,1.3v37.8h19.4l4.2-13.1h10.1v42
			h-10.1l-4.2-14.4h-19.4v40.7h9.1h27.4l4.9-23h12.5V392h-96.1V381.3z"/>
		<path d="M1595.1,381.3l15.2-3.6v-94.6l-15.2-3.6v-10.6h59.5c20.1,0,35.6,5,46.4,15.1c10.8,10.1,16.1,25,16.1,44.9
			c0,12.5-2.6,23.6-7.8,33.2c-5.2,9.6-12.4,16.9-21.7,22.1c-9.2,5.2-19.9,7.8-31.9,7.8h-60.6V381.3z M1670.1,373.3
			c6-2.9,10.2-7.8,12.5-14.9c2.3-7.1,3.5-17.6,3.5-31.5c0-12-1.7-21.2-5.1-27.6c-3.4-6.4-7.9-10.6-13.5-12.7
			c-5.6-2.1-12.3-3.1-20.3-3.1h-9.9v94.2h6.1C1655.2,377.5,1664.1,376.1,1670.1,373.3z"/>
	</g>
</g>
</svg>
